<?xml version="1.0" encoding="utf-8"?>
<!-- Generator: Adobe Illustrator 24.2.1, SVG Export Plug-In . SVG Version: 6.00 Build 0)  -->
<svg version="1.1" xmlns="http://www.w3.org/2000/svg" xmlns:xlink="http://www.w3.org/1999/xlink" x="0px" y="0px"
	 viewBox="0 0 1440 1440" style="enable-background:new 0 0 1440 1440;" xml:space="preserve">
<style type="text/css">
	.st0{fill:none;stroke:#000000;stroke-width:16;stroke-miterlimit:10;}
	.st1{stroke:#000000;stroke-width:16;stroke-miterlimit:10;}
</style>
<g id="Layer_1">
	<path class="st0" d="M589.98,241.27c0,0,68.74,77.4-7.52,172.31s-212.21-45.34-212.21-45.34s-210.91-49.13,80.59,349.34"/>
	<path class="st1" d="M432.33,807.25c0,30.47,4.7,59.84,13.44,87.41c-25.3,47.82-70.76,79.69-122.62,79.69
		c-79.46,0-143.88-74.81-143.88-167.1c0-92.28,64.42-167.08,143.88-167.08c51.86,0,97.33,31.87,122.62,79.68
		C437.04,747.41,432.33,776.78,432.33,807.25z"/>
	<path class="st1" d="M1262.4,807.25c0,92.29-64.41,167.1-143.86,167.1c-51.16,0-96.09-31.02-121.58-77.75
		c9.13-28.13,14.06-58.16,14.06-89.35s-4.92-61.2-14.06-89.35c25.49-46.72,70.42-77.74,121.58-77.74
		C1198,640.16,1262.4,714.97,1262.4,807.25z"/>
	<path class="st0" d="M857.38,241.27c0,0-68.74,77.4,7.52,172.31s212.21-45.34,212.21-45.34s210.91-49.13-80.59,349.34"/>
</g>
<g id="Layer_2">
	<path class="st0" d="M1011.02,807.25c0,31.19-4.92,61.22-14.06,89.35c-37.65,116.08-146.67,200-275.29,200
		c-129.32,0-238.84-84.86-275.9-201.94c-8.74-27.57-13.44-56.94-13.44-87.41s4.7-59.84,13.44-87.41
		c37.06-117.08,146.57-201.93,275.9-201.93c128.62,0,237.64,83.93,275.29,199.99C1006.1,746.05,1011.02,776.06,1011.02,807.25z"/>
</g>
</svg>
